<svg id="Ebene_1" data-name="Ebene 1" xmlns="http://www.w3.org/2000/svg" viewBox="0 0 424.26 424.26"><defs><style>.cls-1{font-size:26px;fill:#b39678;font-family:Montserrat-Bold, Montserrat;font-weight:700;}</style></defs><title>SKILLS</title><text class="cls-1" transform="matrix(1, 0.04, -0.04, 1, 211.99, 21.97)">J</text><text class="cls-1" transform="translate(225.29 22.29) rotate(6.89)">A</text><text class="cls-1" transform="translate(243.68 24.45) rotate(12.41)">V</text><text class="cls-1" transform="translate(261.29 28.24) rotate(17.95)">A</text><text class="cls-1" transform="translate(279.81 34.31) rotate(23.37)">S</text><text class="cls-1" transform="translate(294.73 40.67) rotate(28.64)">C</text><text class="cls-1" transform="matrix(0.83, 0.56, -0.56, 0.83, 311.1, 49.59)">R</text><text class="cls-1" transform="translate(326.53 60.32) rotate(38.32)">I</text><text class="cls-1" transform="matrix(0.74, 0.67, -0.67, 0.74, 333.11, 65.27)">P</text><text class="cls-1" transform="translate(346.33 77.35) rotate(47.28)">T</text><text class="cls-1" transform="matrix(0.63, 0.77, -0.77, 0.63, 356.96, 89.04)"> </text><text class="cls-1" transform="matrix(0.6, 0.8, -0.8, 0.6, 361.51, 94.61)">.</text><text class="cls-1" transform="translate(365.54 99.9) rotate(54.87)"> </text><text class="cls-1" transform="matrix(0.52, 0.86, -0.86, 0.52, 369.8, 105.57)">V</text><text class="cls-1" transform="translate(379.65 121.75) rotate(64.7)">U</text><text class="cls-1" transform="matrix(0.34, 0.94, -0.94, 0.34, 388.18, 139.91)">E</text><text class="cls-1" transform="translate(393.82 156.15) rotate(74.01)"> </text><text class="cls-1" transform="translate(395.79 163.04) rotate(76.11)">.</text><text class="cls-1" transform="translate(397.4 169.51) rotate(78.21)"> </text><text class="cls-1" transform="translate(399.05 176.38) rotate(82.11)">C</text><text class="cls-1" transform="matrix(0.05, 1, -1, 0.05, 401.56, 194.73)">S</text><text class="cls-1" transform="translate(402.34 210.94) rotate(92.1)">S</text><text class="cls-1" transform="translate(401.61 227.25) rotate(95.6)"> </text><text class="cls-1" transform="translate(400.9 234.41) rotate(97.68)">.</text><text class="cls-1" transform="translate(400.02 241.01) rotate(99.78)"> </text><text class="cls-1" transform="translate(399.08 248.01) rotate(103.98)">H</text><text class="cls-1" transform="matrix(-0.33, 0.94, -0.94, -0.33, 394.01, 267.95)">T</text><text class="cls-1" transform="translate(389.04 282.77) rotate(115.54)">M</text><text class="cls-1" transform="matrix(-0.52, 0.85, -0.85, -0.52, 378.33, 304.68)">L</text><text class="cls-1" transform="translate(370.16 317.78) rotate(124.92)"> </text><text class="cls-1" transform="matrix(-0.6, 0.8, -0.8, -0.6, 366.03, 323.69)">.</text><text class="cls-1" transform="translate(362.04 329) rotate(129.08)"> </text><text class="cls-1" transform="translate(357.74 334.62) rotate(132.95)">P</text><text class="cls-1" transform="translate(345.3 348.1) rotate(138.74)">H</text><text class="cls-1" transform="translate(329.87 361.71) rotate(145.04)">O</text><text class="cls-1" transform="translate(312.38 373.81) rotate(150.57)">T</text><text class="cls-1" transform="matrix(-0.91, 0.4, -0.4, -0.91, 299.05, 381.53)">O</text><text class="cls-1" transform="translate(279.33 390.14) rotate(161.82)">S</text><text class="cls-1" transform="translate(264 395.31) rotate(167.4)">H</text><text class="cls-1" transform="translate(243.96 399.83) rotate(173.75)">O</text><text class="cls-1" transform="translate(222.56 402.01) rotate(179.07)">P</text><text class="cls-1" transform="translate(203.86 402.03) rotate(-176.45)"> </text><text class="cls-1" transform="matrix(-1, -0.1, 0.1, -1, 196.67, 401.58)">.</text><text class="cls-1" transform="matrix(-0.99, -0.13, 0.13, -0.99, 190.05, 400.94)"> </text><text class="cls-1" transform="translate(182.94 399.99) rotate(-169.95)">I</text><text class="cls-1" transform="translate(174.78 398.67) rotate(-166.36)">L</text><text class="cls-1" transform="translate(159.84 395.06) rotate(-161.69)">L</text><text class="cls-1" transform="translate(145.49 390.45) rotate(-156.39)">U</text><text class="cls-1" transform="translate(127.13 382.35) rotate(-150.91)">S</text><text class="cls-1" transform="matrix(-0.83, -0.56, 0.56, -0.83, 113.14, 374.58)">T</text><text class="cls-1" transform="matrix(-0.78, -0.63, 0.63, -0.78, 100.08, 365.94)">R</text><text class="cls-1" transform="matrix(-0.71, -0.7, 0.7, -0.71, 85.54, 354.22)">A</text><text class="cls-1" transform="translate(72.31 341.08) rotate(-130.29)">T</text><text class="cls-1" transform="matrix(-0.57, -0.82, 0.82, -0.57, 62.2, 329.43)">O</text><text class="cls-1" transform="translate(49.98 311.75) rotate(-118.74)">R</text><text class="cls-1" transform="translate(41.11 295.19) rotate(-114.83)"> </text><text class="cls-1" transform="translate(38.09 288.65) rotate(-112.73)">.</text><text class="cls-1" transform="translate(35.51 282.52) rotate(-110.63)"> </text><text class="cls-1" transform="translate(32.81 275.99) rotate(-106.58)">A</text><text class="cls-1" transform="translate(27.3 257.28) rotate(-101.16)">F</text><text class="cls-1" transform="matrix(-0.11, -0.99, 0.99, -0.11, 24.13, 241.19)">T</text><text class="cls-1" transform="matrix(-0.02, -1, 1, -0.02, 22.36, 225.6)">E</text><text class="cls-1" transform="translate(21.89 208.55) rotate(-86.1)">R</text><text class="cls-1" transform="translate(23.35 189.79) rotate(-82.21)"> </text><text class="cls-1" transform="translate(24.15 182.75) rotate(-78.55)">E</text><text class="cls-1" transform="translate(27.53 166.03) rotate(-73.5)">F</text><text class="cls-1" transform="translate(32.13 150.45) rotate(-68.57)">F</text><text class="cls-1" transform="matrix(0.45, -0.9, 0.9, 0.45, 38.03, 135.32)">E</text><text class="cls-1" transform="matrix(0.53, -0.85, 0.85, 0.53, 45.57, 120.07)">C</text><text class="cls-1" transform="translate(55.36 104.39) rotate(-53.04)">T</text><text class="cls-1" transform="translate(64.96 91.84) rotate(-49.6)"> </text><text class="cls-1" transform="translate(69.64 86.34) rotate(-47.52)">.</text><text class="cls-1" transform="translate(74.12 81.44) rotate(-45.45)"> </text><text class="cls-1" transform="matrix(0.75, -0.66, 0.66, 0.75, 78.92, 76.24)">B</text><text class="cls-1" transform="translate(93.58 63.39) rotate(-36.23)">L</text><text class="cls-1" transform="matrix(0.85, -0.52, 0.52, 0.85, 105.92, 54.28)">E</text><text class="cls-1" transform="translate(120.4 45.33) rotate(-25.68)">N</text><text class="cls-1" transform="translate(138.92 36.38) rotate(-19.38)">D</text><text class="cls-1" transform="translate(158.78 29.48) rotate(-13.61)">E</text><text class="cls-1" transform="translate(175.34 25.41) rotate(-8.2)">R</text><text class="cls-1" transform="translate(193.99 22.92) rotate(-4.31)"> </text><text class="cls-1" transform="matrix(1, -0.04, 0.04, 1, 201.15, 22.38)">.</text><text class="cls-1" transform="matrix(1, -0.02, 0.02, 1, 207.83, 22.16)"> </text></svg>